M48
; DRILL file {KiCad 7.0.8} date Fri Oct 27 16:39:18 2023
; FORMAT={-:-/ absolute / metric / decimal}
; #@! TF.CreationDate,2023-10-27T16:39:18+09:00
; #@! TF.GenerationSoftware,Kicad,Pcbnew,7.0.8
; #@! TF.FileFunction,MixedPlating,1,2
FMAT,2
METRIC
; #@! TA.AperFunction,Plated,PTH,ViaDrill
T1C0.400
; #@! TA.AperFunction,Plated,PTH,ComponentDrill
T2C0.700
; #@! TA.AperFunction,Plated,PTH,ComponentDrill
T3C0.800
; #@! TA.AperFunction,Plated,PTH,ComponentDrill
T4C0.830
; #@! TA.AperFunction,Plated,PTH,ComponentDrill
T5C0.900
; #@! TA.AperFunction,Plated,PTH,ComponentDrill
T6C1.000
; #@! TA.AperFunction,Plated,PTH,ComponentDrill
T7C1.110
; #@! TA.AperFunction,Plated,PTH,ComponentDrill
T8C1.300
; #@! TA.AperFunction,Plated,PTH,ComponentDrill
T9C1.500
; #@! TA.AperFunction,Plated,PTH,ComponentDrill
T10C1.700
; #@! TA.AperFunction,Plated,PTH,ComponentDrill
T11C1.890
; #@! TA.AperFunction,NonPlated,NPTH,ComponentDrill
T12C2.400
%
G90
G05
T1
X76.25Y-132.812
X84.25Y-86.25
X84.25Y-111.25
X87.425Y-124.05
X87.425Y-126.3
X87.425Y-128.3
X89.0Y-71.0
X90.5Y-66.5
X90.5Y-68.5
X92.5Y-82.0
X92.5Y-107.0
X94.0Y-123.0
X94.0Y-147.25
X95.0Y-82.0
X95.0Y-107.0
X97.0Y-75.5
X97.0Y-80.5
X97.0Y-123.0
X98.25Y-77.25
X98.25Y-102.25
X98.25Y-128.25
X98.4Y-57.75
X98.4Y-60.25
X98.75Y-131.0
X98.75Y-135.25
X102.25Y-48.75
X104.0Y-42.75
X104.0Y-147.25
X104.25Y-122.5
X105.0Y-69.25
X105.0Y-86.5
X105.0Y-101.75
X105.0Y-112.75
X105.25Y-125.0
X107.25Y-81.75
X107.25Y-88.75
X107.25Y-111.0
X107.45Y-99.6
X107.45Y-101.35
X107.45Y-102.85
X107.5Y-72.75
X107.5Y-75.75
X107.5Y-122.75
X109.0Y-75.75
X109.5Y-130.25
X109.5Y-131.75
X110.242Y-91.75
X110.25Y-67.25
X110.25Y-86.25
X111.0Y-79.625
X111.0Y-130.25
X111.0Y-131.75
X112.75Y-101.5
X113.1Y-129.0
X113.75Y-126.25
X114.0Y-42.75
X114.0Y-147.25
X114.6Y-129.0
X115.25Y-134.25
X115.25Y-136.5
X115.25Y-138.5
X116.1Y-129.0
X117.0Y-77.875
X117.0Y-119.0
X117.6Y-129.0
X117.6Y-142.5
X117.75Y-98.5
X118.0Y-90.5
X118.25Y-134.25
X118.25Y-136.5
X118.25Y-138.5
X118.75Y-92.75
X119.1Y-129.0
X119.1Y-142.5
X119.75Y-82.0
X120.25Y-72.75
X120.5Y-76.25
X120.6Y-129.0
X120.6Y-142.5
X121.0Y-56.5
X121.0Y-78.25
X121.0Y-134.25
X121.0Y-136.5
X121.0Y-138.5
X122.0Y-76.25
X122.1Y-129.0
X122.1Y-142.5
X122.25Y-119.0
X122.5Y-90.0
X123.5Y-136.0
X123.75Y-126.25
X124.0Y-42.75
X124.0Y-147.25
X124.35Y-65.3
X125.25Y-66.25
X125.6Y-129.45
X125.6Y-131.45
X126.35Y-130.45
X127.1Y-129.45
X127.1Y-131.45
X127.5Y-65.75
X128.5Y-80.75
X128.5Y-100.5
X130.75Y-94.0
X132.0Y-80.75
X132.25Y-118.75
X132.75Y-59.25
X133.0Y-63.25
X133.5Y-73.0
X133.5Y-87.0
X133.5Y-101.5
X133.75Y-126.25
X134.0Y-42.75
X134.0Y-147.25
X135.25Y-96.425
X135.5Y-54.5
X136.0Y-91.5
X136.5Y-101.0
X139.0Y-76.5
X139.0Y-95.0
X139.25Y-106.75
X139.25Y-121.25
X140.0Y-103.0
X141.0Y-55.0
X141.25Y-105.25
X141.5Y-53.5
X143.25Y-91.5
X144.0Y-42.75
X144.0Y-112.75
X144.0Y-147.25
X144.25Y-126.25
X145.5Y-76.5
X145.5Y-86.25
X146.2Y-104.5
X146.75Y-90.0
X146.75Y-94.75
X147.25Y-84.5
X147.25Y-85.75
X147.5Y-113.5
X149.0Y-60.5
X149.0Y-83.8
X149.0Y-95.25
X149.0Y-96.25
X149.0Y-97.25
X149.2Y-91.6
X149.2Y-92.6
X149.25Y-90.0
X149.25Y-126.25
X149.5Y-61.75
X149.5Y-71.75
X149.5Y-81.75
X149.75Y-88.25
X149.75Y-100.0
X149.8Y-86.8
X150.25Y-54.0
X151.5Y-105.75
X151.75Y-68.25
X151.75Y-78.25
X152.0Y-56.25
X152.0Y-102.0
X152.5Y-88.25
X152.75Y-60.5
X152.75Y-83.0
X153.0Y-98.75
X153.75Y-94.25
X154.0Y-42.75
X154.0Y-147.25
X154.75Y-77.75
X154.75Y-81.5
X154.75Y-83.0
X155.0Y-73.75
X155.0Y-121.0
X156.0Y-77.75
X156.25Y-98.75
X156.5Y-90.0
X157.0Y-102.0
X157.25Y-87.0
X157.75Y-61.75
X158.0Y-78.0
X158.5Y-87.0
X158.5Y-99.5
X158.5Y-101.5
X159.5Y-107.75
X159.5Y-112.75
X159.75Y-59.5
X159.75Y-87.0
X159.75Y-99.5
X160.25Y-102.75
X160.5Y-114.0
X161.0Y-87.0
X161.5Y-111.5
X162.25Y-60.25
X162.25Y-68.25
X162.25Y-126.5
X162.55Y-97.087
X162.75Y-56.25
X162.75Y-102.75
X163.0Y-65.0
X163.0Y-105.25
X163.25Y-78.0
X163.25Y-86.75
X164.0Y-42.75
X164.0Y-118.0
X164.0Y-147.25
X164.75Y-83.0
X165.5Y-67.75
X165.5Y-73.25
X165.5Y-89.5
X165.75Y-53.75
X166.0Y-83.25
X166.0Y-108.004
X166.5Y-111.0
X166.5Y-113.0
X167.0Y-80.5
X167.25Y-83.0
X167.5Y-87.0
X167.7Y-56.675
X167.75Y-59.0
X167.75Y-63.25
X167.75Y-105.25
X168.0Y-78.0
X168.75Y-87.0
X169.0Y-89.5
X169.5Y-126.5
X170.0Y-73.75
X170.0Y-87.0
X170.5Y-105.5
X170.5Y-116.0
X170.5Y-118.5
X171.0Y-110.0
X172.75Y-77.0
X172.75Y-81.0
X172.75Y-84.5
X173.25Y-112.0
X174.0Y-42.75
X174.0Y-62.625
X174.0Y-147.25
X174.25Y-121.25
X176.75Y-87.0
X176.75Y-112.0
X176.75Y-118.25
X177.0Y-105.0
X177.5Y-81.0
X177.5Y-84.5
X177.7Y-63.425
X177.75Y-67.75
X178.0Y-102.5
X178.75Y-101.75
X179.5Y-101.0
X179.75Y-53.75
X180.5Y-112.0
X180.75Y-102.75
X180.75Y-117.0
X182.75Y-83.25
X182.75Y-89.0
X183.75Y-81.0
X184.0Y-42.75
X184.0Y-147.25
X185.0Y-87.75
X185.75Y-85.25
X185.75Y-86.5
X185.75Y-92.5
X186.0Y-57.0
X186.0Y-64.5
X187.5Y-112.0
X187.5Y-116.75
X190.0Y-126.5
X194.0Y-42.75
X194.0Y-147.25
X203.0Y-55.75
X203.0Y-65.75
X203.0Y-75.75
X203.0Y-85.75
X203.0Y-106.0
X203.0Y-116.0
X203.0Y-126.0
X203.0Y-136.0
T2
X154.75Y-71.5
X156.25Y-69.5
X157.75Y-71.5
X159.25Y-69.5
X160.75Y-71.5
T3
X101.5Y-125.0
X101.5Y-127.5
X131.8Y-140.5
X133.2Y-135.5
X138.75Y-82.818
X138.75Y-85.318
X166.75Y-92.75
X166.75Y-100.37
X174.37Y-92.75
X174.37Y-100.37
T4
X83.027Y-135.05
X85.567Y-135.05
X88.107Y-135.05
X93.187Y-135.05
X95.727Y-135.05
T5
X76.0Y-60.0
X76.0Y-62.04
X76.0Y-64.08
X76.0Y-66.12
X76.0Y-85.0
X76.0Y-87.04
X76.0Y-89.08
X76.0Y-91.12
X76.0Y-110.0
X76.0Y-112.04
X76.0Y-114.08
X76.0Y-116.12
X78.54Y-61.02
X78.54Y-63.06
X78.54Y-65.1
X78.54Y-67.14
X78.54Y-86.02
X78.54Y-88.06
X78.54Y-90.1
X78.54Y-92.14
X78.54Y-111.02
X78.54Y-113.06
X78.54Y-115.1
X78.54Y-117.14
X111.75Y-50.5
X114.25Y-50.5
X116.75Y-50.5
X188.5Y-82.5
X188.5Y-84.5
X188.5Y-86.5
X188.5Y-88.5
X188.5Y-90.5
X188.5Y-92.5
T6
X85.5Y-140.55
X95.5Y-140.55
X114.0Y-110.868
X114.0Y-115.868
X135.868Y-110.5
X135.882Y-67.75
X140.868Y-110.5
X140.882Y-67.75
T7
X125.25Y-75.235
X125.25Y-77.775
X125.25Y-80.315
X125.25Y-82.855
X125.25Y-85.395
X125.25Y-110.795
X125.25Y-113.335
X125.25Y-115.875
X125.25Y-118.415
X125.25Y-120.955
X125.25Y-123.495
T8
X185.81Y-139.5
X189.0Y-60.75
X189.0Y-65.83
X189.0Y-70.91
X189.5Y-104.42
X189.5Y-109.5
X189.5Y-114.58
X189.5Y-119.66
X190.89Y-139.5
T9
X78.54Y-55.445
X78.54Y-71.695
X78.54Y-80.445
X78.54Y-96.695
X78.54Y-105.445
X78.54Y-121.695
T10
X138.65Y-139.5
X145.35Y-139.5
X152.65Y-124.5
X158.65Y-139.5
X159.35Y-124.5
X165.35Y-139.5
X172.625Y-124.5
X179.325Y-124.5
T11
X174.0Y-135.2
X174.0Y-141.0
X178.8Y-138.2
T12
X73.46Y-56.17
X73.46Y-70.97
X73.46Y-81.17
X73.46Y-95.97
X73.46Y-106.17
X73.46Y-120.97
T0
M30
