M48
; DRILL file {KiCad 7.0.8} date Wed Nov  8 10:09:17 2023
; FORMAT={-:-/ absolute / metric / decimal}
; #@! TF.CreationDate,2023-11-08T10:09:17+09:00
; #@! TF.GenerationSoftware,Kicad,Pcbnew,7.0.8
; #@! TF.FileFunction,MixedPlating,1,2
FMAT,2
METRIC
; #@! TA.AperFunction,Plated,PTH,ViaDrill
T1C0.400
; #@! TA.AperFunction,Plated,PTH,ComponentDrill
T2C0.700
; #@! TA.AperFunction,Plated,PTH,ComponentDrill
T3C0.800
; #@! TA.AperFunction,Plated,PTH,ComponentDrill
T4C0.830
; #@! TA.AperFunction,Plated,PTH,ComponentDrill
T5C0.900
; #@! TA.AperFunction,Plated,PTH,ComponentDrill
T6C1.000
; #@! TA.AperFunction,Plated,PTH,ComponentDrill
T7C1.110
; #@! TA.AperFunction,Plated,PTH,ComponentDrill
T8C1.300
; #@! TA.AperFunction,Plated,PTH,ComponentDrill
T9C1.500
; #@! TA.AperFunction,Plated,PTH,ComponentDrill
T10C1.700
; #@! TA.AperFunction,Plated,PTH,ComponentDrill
T11C1.890
; #@! TA.AperFunction,NonPlated,NPTH,ComponentDrill
T12C2.400
%
G90
G05
T1
X76.25Y-132.812
X84.25Y-86.25
X84.25Y-111.25
X87.425Y-124.05
X87.425Y-126.3
X87.425Y-128.3
X89.0Y-71.0
X90.5Y-66.5
X90.5Y-68.5
X92.5Y-82.0
X92.5Y-107.0
X95.0Y-82.0
X95.0Y-107.0
X97.0Y-75.5
X97.0Y-80.5
X98.25Y-77.25
X98.25Y-102.25
X98.4Y-57.75
X98.4Y-60.25
X107.5Y-101.5
X110.0Y-130.5
X110.0Y-131.75
X110.5Y-88.75
X110.5Y-93.25
X110.75Y-79.5
X111.25Y-130.5
X111.25Y-131.75
X113.75Y-128.75
X115.0Y-128.75
X115.5Y-143.25
X116.25Y-128.75
X116.75Y-143.25
X117.0Y-80.75
X117.5Y-128.75
X118.0Y-143.25
X118.5Y-75.0
X118.5Y-80.0
X118.75Y-128.75
X119.25Y-143.25
X120.0Y-128.75
X120.25Y-75.0
X120.25Y-80.0
X121.0Y-64.75
X122.0Y-75.0
X122.0Y-80.0
X130.75Y-131.5
X130.75Y-133.0
X130.75Y-134.5
X133.5Y-73.25
X136.5Y-98.25
X138.75Y-101.25
X140.5Y-87.0
X140.5Y-88.75
X141.5Y-87.0
X141.5Y-88.75
X142.5Y-87.0
X142.5Y-88.75
X143.5Y-87.0
X143.5Y-88.75
X144.5Y-87.0
X144.5Y-88.75
X144.75Y-92.0
X145.75Y-90.0
X146.25Y-104.5
X147.0Y-94.25
X147.75Y-81.25
X148.0Y-95.5
X149.0Y-85.75
X149.0Y-87.25
X149.0Y-88.75
X149.0Y-96.75
X149.0Y-99.0
X151.5Y-78.5
X151.5Y-81.0
X153.0Y-82.5
X154.25Y-55.0
X154.25Y-58.0
X155.5Y-98.25
X156.0Y-83.5
X158.0Y-93.0
X158.0Y-98.25
X158.5Y-59.75
X158.5Y-83.5
X159.75Y-86.75
X161.0Y-83.5
X161.75Y-116.0
X162.5Y-71.0
X162.75Y-95.75
X163.75Y-73.25
X165.75Y-110.25
X165.75Y-112.25
X165.75Y-114.0
X166.25Y-82.25
X166.25Y-108.0
X166.5Y-64.0
X166.75Y-105.0
X167.5Y-83.5
X168.25Y-68.5
X168.75Y-81.75
X168.75Y-105.0
X169.75Y-70.25
X170.0Y-77.5
X170.0Y-87.0
X170.25Y-116.0
X170.5Y-105.0
X173.25Y-67.0
X174.5Y-61.75
X176.5Y-105.75
X176.5Y-118.25
X177.25Y-53.25
X182.25Y-109.5
X182.25Y-114.5
T2
X159.0Y-67.0
X159.5Y-69.75
X159.5Y-72.5
T3
X101.5Y-125.0
X101.5Y-127.5
X131.8Y-138.0
X133.2Y-133.0
X138.5Y-83.068
X138.5Y-85.568
X166.69Y-91.44
X166.69Y-99.06
X174.31Y-91.44
X174.31Y-99.06
T4
X83.027Y-135.05
X85.567Y-135.05
X88.107Y-135.05
X93.187Y-135.05
X95.727Y-135.05
T5
X76.0Y-60.0
X76.0Y-62.04
X76.0Y-64.08
X76.0Y-66.12
X76.0Y-85.0
X76.0Y-87.04
X76.0Y-89.08
X76.0Y-91.12
X76.0Y-110.0
X76.0Y-112.04
X76.0Y-114.08
X76.0Y-116.12
X78.54Y-61.02
X78.54Y-63.06
X78.54Y-65.1
X78.54Y-67.14
X78.54Y-86.02
X78.54Y-88.06
X78.54Y-90.1
X78.54Y-92.14
X78.54Y-111.02
X78.54Y-113.06
X78.54Y-115.1
X78.54Y-117.14
X111.75Y-50.5
X114.25Y-50.5
X116.75Y-50.5
X151.5Y-61.25
X151.5Y-63.25
X151.5Y-65.25
X151.5Y-67.25
X151.5Y-69.25
X151.5Y-71.25
T6
X85.5Y-140.55
X95.5Y-140.55
X114.25Y-109.618
X114.25Y-114.618
X135.868Y-110.5
X138.5Y-67.75
X140.868Y-110.5
X143.5Y-67.75
T7
X125.25Y-75.235
X125.25Y-77.775
X125.25Y-80.315
X125.25Y-82.855
X125.25Y-85.395
X125.25Y-110.795
X125.25Y-113.335
X125.25Y-115.875
X125.25Y-118.415
X125.25Y-120.955
X125.25Y-123.495
T8
X185.81Y-139.5
X189.5Y-60.67
X189.5Y-65.75
X189.5Y-70.83
X189.5Y-75.91
X189.5Y-104.42
X189.5Y-109.5
X189.5Y-114.58
X189.5Y-119.66
X190.89Y-139.5
T9
X78.54Y-55.445
X78.54Y-71.695
X78.54Y-80.445
X78.54Y-96.695
X78.54Y-105.445
X78.54Y-121.695
T10
X138.65Y-139.5
X145.35Y-139.5
X152.65Y-124.5
X158.65Y-139.5
X159.35Y-124.5
X165.35Y-139.5
X172.625Y-124.5
X179.325Y-124.5
T11
X174.0Y-135.2
X174.0Y-141.0
X178.8Y-138.2
T12
X73.46Y-56.17
X73.46Y-70.97
X73.46Y-81.17
X73.46Y-95.97
X73.46Y-106.17
X73.46Y-120.97
T0
M30
