G04 #@! TF.GenerationSoftware,KiCad,Pcbnew,7.0.8*
G04 #@! TF.CreationDate,2023-11-08T10:09:29+09:00*
G04 #@! TF.ProjectId,DMX512toWS2811,444d5835-3132-4746-9f57-53323831312e,rev?*
G04 #@! TF.SameCoordinates,Original*
G04 #@! TF.FileFunction,Soldermask,Top*
G04 #@! TF.FilePolarity,Negative*
%FSLAX46Y46*%
G04 Gerber Fmt 4.6, Leading zero omitted, Abs format (unit mm)*
G04 Created by KiCad (PCBNEW 7.0.8) date 2023-11-08 10:09:29*
%MOMM*%
%LPD*%
G01*
G04 APERTURE LIST*
G04 Aperture macros list*
%AMRoundRect*
0 Rectangle with rounded corners*
0 $1 Rounding radius*
0 $2 $3 $4 $5 $6 $7 $8 $9 X,Y pos of 4 corners*
0 Add a 4 corners polygon primitive as box body*
4,1,4,$2,$3,$4,$5,$6,$7,$8,$9,$2,$3,0*
0 Add four circle primitives for the rounded corners*
1,1,$1+$1,$2,$3*
1,1,$1+$1,$4,$5*
1,1,$1+$1,$6,$7*
1,1,$1+$1,$8,$9*
0 Add four rect primitives between the rounded corners*
20,1,$1+$1,$2,$3,$4,$5,0*
20,1,$1+$1,$4,$5,$6,$7,0*
20,1,$1+$1,$6,$7,$8,$9,0*
20,1,$1+$1,$8,$9,$2,$3,0*%
G04 Aperture macros list end*
%ADD10RoundRect,0.237500X-0.237500X0.250000X-0.237500X-0.250000X0.237500X-0.250000X0.237500X0.250000X0*%
%ADD11RoundRect,0.237500X-0.237500X0.300000X-0.237500X-0.300000X0.237500X-0.300000X0.237500X0.300000X0*%
%ADD12RoundRect,0.237500X-0.250000X-0.237500X0.250000X-0.237500X0.250000X0.237500X-0.250000X0.237500X0*%
%ADD13RoundRect,0.250000X-0.400000X-0.625000X0.400000X-0.625000X0.400000X0.625000X-0.400000X0.625000X0*%
%ADD14RoundRect,0.237500X0.250000X0.237500X-0.250000X0.237500X-0.250000X-0.237500X0.250000X-0.237500X0*%
%ADD15R,0.450000X1.500000*%
%ADD16R,0.900000X0.400000*%
%ADD17R,1.200000X0.800000*%
%ADD18R,1.600000X1.600000*%
%ADD19C,1.600000*%
%ADD20C,1.950000*%
%ADD21RoundRect,0.237500X0.300000X0.237500X-0.300000X0.237500X-0.300000X-0.237500X0.300000X-0.237500X0*%
%ADD22R,1.000000X0.800000*%
%ADD23R,1.000000X0.600000*%
%ADD24R,0.950000X0.900000*%
%ADD25C,2.400000*%
%ADD26C,1.400000*%
%ADD27C,2.250000*%
%ADD28R,2.000000X2.000000*%
%ADD29C,2.000000*%
%ADD30RoundRect,0.237500X0.237500X-0.250000X0.237500X0.250000X-0.237500X0.250000X-0.237500X-0.250000X0*%
%ADD31R,1.810000X1.160000*%
%ADD32R,1.100000X0.650000*%
%ADD33R,1.350000X1.350000*%
%ADD34C,1.350000*%
%ADD35RoundRect,0.237500X-0.300000X-0.237500X0.300000X-0.237500X0.300000X0.237500X-0.300000X0.237500X0*%
%ADD36RoundRect,0.125000X-0.125000X-0.125000X0.125000X-0.125000X0.125000X0.125000X-0.125000X0.125000X0*%
%ADD37C,1.500000*%
%ADD38RoundRect,0.250000X0.400000X0.625000X-0.400000X0.625000X-0.400000X-0.625000X0.400000X-0.625000X0*%
%ADD39R,0.650000X1.850000*%
%ADD40C,2.550000*%
%ADD41R,1.525000X0.650000*%
%ADD42R,1.000000X0.500000*%
%ADD43R,0.900000X0.950000*%
%ADD44R,2.000000X1.300000*%
%ADD45R,1.270000X1.100000*%
%ADD46RoundRect,0.250000X-0.412500X-0.650000X0.412500X-0.650000X0.412500X0.650000X-0.412500X0.650000X0*%
%ADD47RoundRect,0.237500X0.237500X-0.300000X0.237500X0.300000X-0.237500X0.300000X-0.237500X-0.300000X0*%
%ADD48C,1.349000*%
%ADD49R,1.200000X0.700000*%
%ADD50R,2.150000X2.200000*%
%ADD51R,1.160000X1.810000*%
%ADD52R,1.800000X1.000000*%
%ADD53C,1.300000*%
%ADD54R,1.600000X3.000000*%
%ADD55R,6.000000X6.000000*%
%ADD56R,3.800000X2.500000*%
%ADD57R,7.900000X2.300000*%
%ADD58R,3.400000X2.300000*%
%ADD59R,0.900000X0.600000*%
%ADD60RoundRect,0.250000X0.350000X0.450000X-0.350000X0.450000X-0.350000X-0.450000X0.350000X-0.450000X0*%
%ADD61R,0.650000X1.525000*%
%ADD62R,2.800000X0.900000*%
%ADD63RoundRect,0.250000X0.412500X0.650000X-0.412500X0.650000X-0.412500X-0.650000X0.412500X-0.650000X0*%
%ADD64C,2.850000*%
G04 APERTURE END LIST*
D10*
G04 #@! TO.C,R21*
X120500000Y-48587500D03*
X120500000Y-50412500D03*
G04 #@! TD*
D11*
G04 #@! TO.C,C21*
X176000000Y-67387500D03*
X176000000Y-69112500D03*
G04 #@! TD*
D12*
G04 #@! TO.C,R41*
X177837500Y-67500000D03*
X179662500Y-67500000D03*
G04 #@! TD*
D13*
G04 #@! TO.C,R1*
X85950000Y-83000000D03*
X89050000Y-83000000D03*
G04 #@! TD*
D14*
G04 #@! TO.C,R39*
X150412500Y-102000000D03*
X148587500Y-102000000D03*
G04 #@! TD*
G04 #@! TO.C,R28*
X119912500Y-100000000D03*
X118087500Y-100000000D03*
G04 #@! TD*
D12*
G04 #@! TO.C,R31*
X163587500Y-116000000D03*
X165412500Y-116000000D03*
G04 #@! TD*
D15*
G04 #@! TO.C,IC6*
X160075000Y-62450000D03*
X160725000Y-62450000D03*
X161375000Y-62450000D03*
X162025000Y-62450000D03*
X162675000Y-62450000D03*
X163325000Y-62450000D03*
X163975000Y-62450000D03*
X164625000Y-62450000D03*
X165275000Y-62450000D03*
X165925000Y-62450000D03*
X165925000Y-56550000D03*
X165275000Y-56550000D03*
X164625000Y-56550000D03*
X163975000Y-56550000D03*
X163325000Y-56550000D03*
X162675000Y-56550000D03*
X162025000Y-56550000D03*
X161375000Y-56550000D03*
X160725000Y-56550000D03*
X160075000Y-56550000D03*
G04 #@! TD*
D16*
G04 #@! TO.C,FL1*
X92150000Y-86650000D03*
X93850000Y-86650000D03*
X93850000Y-85850000D03*
X92150000Y-85850000D03*
G04 #@! TD*
D17*
G04 #@! TO.C,IC3*
X90350000Y-57730000D03*
X90350000Y-60270000D03*
X96650000Y-60270000D03*
X96650000Y-59000000D03*
X96650000Y-57730000D03*
G04 #@! TD*
D18*
G04 #@! TO.C,CA3*
X138500000Y-83067621D03*
D19*
X138500000Y-85567621D03*
G04 #@! TD*
D20*
G04 #@! TO.C,CN4*
X189500000Y-65750000D03*
X189500000Y-60670000D03*
G04 #@! TD*
D12*
G04 #@! TO.C,R42*
X177837500Y-69250000D03*
X179662500Y-69250000D03*
G04 #@! TD*
D11*
G04 #@! TO.C,C14*
X156500000Y-89637500D03*
X156500000Y-91362500D03*
G04 #@! TD*
D21*
G04 #@! TO.C,C15*
X124362500Y-63750000D03*
X122637500Y-63750000D03*
G04 #@! TD*
D22*
G04 #@! TO.C,IC4*
X112800000Y-77300000D03*
D23*
X112800000Y-78250000D03*
D22*
X112800000Y-79200000D03*
X115200000Y-79200000D03*
X115200000Y-77300000D03*
G04 #@! TD*
D24*
G04 #@! TO.C,LED1*
X76250000Y-131637082D03*
X76250000Y-130137082D03*
G04 #@! TD*
D20*
G04 #@! TO.C,CN7*
X189500000Y-75910000D03*
X189500000Y-70830000D03*
G04 #@! TD*
D25*
G04 #@! TO.C,J2*
X73460000Y-81170000D03*
X73460000Y-95970000D03*
D26*
X76000000Y-85000000D03*
X78540000Y-86020000D03*
X76000000Y-87040000D03*
X78540000Y-88060000D03*
X76000000Y-89080000D03*
X78540000Y-90100000D03*
X76000000Y-91120000D03*
X78540000Y-92140000D03*
D27*
X78540000Y-80445000D03*
X78540000Y-96695000D03*
G04 #@! TD*
D12*
G04 #@! TO.C,R25*
X115417500Y-93250000D03*
X117242500Y-93250000D03*
G04 #@! TD*
G04 #@! TO.C,R5*
X90525000Y-70923000D03*
X92350000Y-70923000D03*
G04 #@! TD*
D28*
G04 #@! TO.C,CA1*
X114250000Y-114617677D03*
D29*
X114250000Y-109617677D03*
G04 #@! TD*
D21*
G04 #@! TO.C,C7*
X95500000Y-128249582D03*
X93775000Y-128249582D03*
G04 #@! TD*
D30*
G04 #@! TO.C,R8*
X135240000Y-103750000D03*
X135240000Y-101925000D03*
G04 #@! TD*
D31*
G04 #@! TO.C,F3*
X181500000Y-61275000D03*
X181500000Y-64225000D03*
G04 #@! TD*
D32*
G04 #@! TO.C,D1*
X88050000Y-87210000D03*
X88050000Y-85290000D03*
X85950000Y-86250000D03*
G04 #@! TD*
D14*
G04 #@! TO.C,R35*
X133662500Y-61500000D03*
X131837500Y-61500000D03*
G04 #@! TD*
D12*
G04 #@! TO.C,R7*
X95025000Y-70923000D03*
X96850000Y-70923000D03*
G04 #@! TD*
D18*
G04 #@! TO.C,X1*
X174310000Y-99060000D03*
D19*
X174310000Y-91440000D03*
X166690000Y-91440000D03*
X166690000Y-99060000D03*
G04 #@! TD*
D33*
G04 #@! TO.C,CN3*
X151500000Y-71250000D03*
D34*
X151500000Y-69250000D03*
X151500000Y-67250000D03*
X151500000Y-65250000D03*
X151500000Y-63250000D03*
X151500000Y-61250000D03*
G04 #@! TD*
D12*
G04 #@! TO.C,R18*
X151087500Y-93000000D03*
X152912500Y-93000000D03*
G04 #@! TD*
D35*
G04 #@! TO.C,C12*
X154637500Y-93000000D03*
X156362500Y-93000000D03*
G04 #@! TD*
D30*
G04 #@! TO.C,R12*
X88150000Y-59500000D03*
X88150000Y-57675000D03*
G04 #@! TD*
D36*
G04 #@! TO.C,D3*
X150900000Y-91250000D03*
X153100000Y-91250000D03*
G04 #@! TD*
D37*
G04 #@! TO.C,TP3*
X159000000Y-67000000D03*
G04 #@! TD*
D38*
G04 #@! TO.C,R4*
X89050000Y-114500000D03*
X85950000Y-114500000D03*
G04 #@! TD*
D12*
G04 #@! TO.C,R17*
X110837500Y-81000000D03*
X112662500Y-81000000D03*
G04 #@! TD*
D11*
G04 #@! TO.C,C2*
X96775000Y-77137500D03*
X96775000Y-78862500D03*
G04 #@! TD*
D39*
G04 #@! TO.C,IC5*
X154745000Y-85175000D03*
X156015000Y-85175000D03*
X157285000Y-85175000D03*
X158555000Y-85175000D03*
X159825000Y-85175000D03*
X161095000Y-85175000D03*
X162365000Y-85175000D03*
X163635000Y-85175000D03*
X164905000Y-85175000D03*
X166175000Y-85175000D03*
X167445000Y-85175000D03*
X168715000Y-85175000D03*
X169985000Y-85175000D03*
X171255000Y-85175000D03*
X171255000Y-75825000D03*
X169985000Y-75825000D03*
X168715000Y-75825000D03*
X167445000Y-75825000D03*
X166175000Y-75825000D03*
X164905000Y-75825000D03*
X163635000Y-75825000D03*
X162365000Y-75825000D03*
X161095000Y-75825000D03*
X159825000Y-75825000D03*
X158555000Y-75825000D03*
X157285000Y-75825000D03*
X156015000Y-75825000D03*
X154745000Y-75825000D03*
G04 #@! TD*
D40*
G04 #@! TO.C,F1*
X165350000Y-139500000D03*
X158650000Y-139500000D03*
G04 #@! TD*
D41*
G04 #@! TO.C,IC7*
X163788000Y-110095000D03*
X163788000Y-111365000D03*
X163788000Y-112635000D03*
X163788000Y-113905000D03*
X169212000Y-113905000D03*
X169212000Y-112635000D03*
X169212000Y-111365000D03*
X169212000Y-110095000D03*
G04 #@! TD*
D42*
G04 #@! TO.C,Q2*
X144550000Y-101350000D03*
X144550000Y-102650000D03*
X146450000Y-102000000D03*
G04 #@! TD*
D30*
G04 #@! TO.C,R44*
X173250000Y-65412500D03*
X173250000Y-63587500D03*
G04 #@! TD*
D12*
G04 #@! TO.C,R22*
X122587500Y-62000000D03*
X124412500Y-62000000D03*
G04 #@! TD*
D43*
G04 #@! TO.C,LED4*
X112000000Y-88750000D03*
X113500000Y-88750000D03*
G04 #@! TD*
D44*
G04 #@! TO.C,LED6*
X114950000Y-103100000D03*
X114950000Y-101500000D03*
X114950000Y-99900000D03*
X110550000Y-99900000D03*
X110550000Y-101500000D03*
X110550000Y-103100000D03*
G04 #@! TD*
D45*
G04 #@! TO.C,D8*
X146000000Y-109400000D03*
X146000000Y-112600000D03*
G04 #@! TD*
D30*
G04 #@! TO.C,R29*
X166500000Y-67162500D03*
X166500000Y-65337500D03*
G04 #@! TD*
D46*
G04 #@! TO.C,C4*
X83125000Y-126299582D03*
X86250000Y-126299582D03*
G04 #@! TD*
D47*
G04 #@! TO.C,C8*
X121000000Y-112862500D03*
X121000000Y-111137500D03*
G04 #@! TD*
D40*
G04 #@! TO.C,F4*
X152650000Y-124500000D03*
X159350000Y-124500000D03*
G04 #@! TD*
D11*
G04 #@! TO.C,C11*
X162750000Y-97387500D03*
X162750000Y-99112500D03*
G04 #@! TD*
D20*
G04 #@! TO.C,CN6*
X189500000Y-119660000D03*
X189500000Y-114580000D03*
G04 #@! TD*
D10*
G04 #@! TO.C,R45*
X171500000Y-60087500D03*
X171500000Y-61912500D03*
G04 #@! TD*
D40*
G04 #@! TO.C,F2*
X145350000Y-139500000D03*
X138650000Y-139500000D03*
G04 #@! TD*
D16*
G04 #@! TO.C,FL2*
X92150000Y-111650000D03*
X93850000Y-111650000D03*
X93850000Y-110850000D03*
X92150000Y-110850000D03*
G04 #@! TD*
D30*
G04 #@! TO.C,R9*
X135250000Y-100000000D03*
X135250000Y-98175000D03*
G04 #@! TD*
D48*
G04 #@! TO.C,PS1*
X95727082Y-135049582D03*
X93187082Y-135049582D03*
X88107082Y-135049582D03*
X85567082Y-135049582D03*
X83027082Y-135049582D03*
G04 #@! TD*
D10*
G04 #@! TO.C,R30*
X158500000Y-61087500D03*
X158500000Y-62912500D03*
G04 #@! TD*
D21*
G04 #@! TO.C,C16*
X115975000Y-54000000D03*
X114250000Y-54000000D03*
G04 #@! TD*
D29*
G04 #@! TO.C,C6*
X85500000Y-140549582D03*
X95500000Y-140549582D03*
G04 #@! TD*
D47*
G04 #@! TO.C,C13*
X117000000Y-79112500D03*
X117000000Y-77387500D03*
G04 #@! TD*
D20*
G04 #@! TO.C,CN1*
X185810000Y-139500000D03*
X190890000Y-139500000D03*
G04 #@! TD*
D49*
G04 #@! TO.C,LED7*
X168750000Y-116000000D03*
X167250000Y-116000000D03*
G04 #@! TD*
D50*
G04 #@! TO.C,D4*
X180250000Y-53300000D03*
X180250000Y-57700000D03*
G04 #@! TD*
D24*
G04 #@! TO.C,LED3*
X133500000Y-75000000D03*
X133500000Y-76500000D03*
G04 #@! TD*
D51*
G04 #@! TO.C,F5*
X177525000Y-109500000D03*
X180475000Y-109500000D03*
G04 #@! TD*
D25*
G04 #@! TO.C,J3*
X73460000Y-106170000D03*
X73460000Y-120970000D03*
D26*
X76000000Y-110000000D03*
X78540000Y-111020000D03*
X76000000Y-112040000D03*
X78540000Y-113060000D03*
X76000000Y-114080000D03*
X78540000Y-115100000D03*
X76000000Y-116120000D03*
X78540000Y-117140000D03*
D27*
X78540000Y-105445000D03*
X78540000Y-121695000D03*
G04 #@! TD*
D52*
G04 #@! TO.C,S1*
X118600000Y-60250000D03*
X110400000Y-60250000D03*
X118600000Y-64750000D03*
X110400000Y-64750000D03*
G04 #@! TD*
D35*
G04 #@! TO.C,C3*
X84525000Y-128299582D03*
X86250000Y-128299582D03*
G04 #@! TD*
D30*
G04 #@! TO.C,R13*
X76250000Y-127962082D03*
X76250000Y-126137082D03*
G04 #@! TD*
D14*
G04 #@! TO.C,R24*
X117155000Y-88750000D03*
X115330000Y-88750000D03*
G04 #@! TD*
D12*
G04 #@! TO.C,R38*
X142587500Y-104500000D03*
X144412500Y-104500000D03*
G04 #@! TD*
D53*
G04 #@! TO.C,VA1*
X131800000Y-138000000D03*
X133200000Y-133000000D03*
G04 #@! TD*
D10*
G04 #@! TO.C,R33*
X161750000Y-112837500D03*
X161750000Y-114662500D03*
G04 #@! TD*
D12*
G04 #@! TO.C,R37*
X140587500Y-101250000D03*
X142412500Y-101250000D03*
G04 #@! TD*
D30*
G04 #@! TO.C,R46*
X171500000Y-66912500D03*
X171500000Y-65087500D03*
G04 #@! TD*
D28*
G04 #@! TO.C,CA5*
X140867677Y-110500000D03*
D29*
X135867677Y-110500000D03*
G04 #@! TD*
D14*
G04 #@! TO.C,R6*
X95412500Y-96000000D03*
X93587500Y-96000000D03*
G04 #@! TD*
D12*
G04 #@! TO.C,R15*
X100325000Y-56000000D03*
X102150000Y-56000000D03*
G04 #@! TD*
D28*
G04 #@! TO.C,CA4*
X138500000Y-67750000D03*
D29*
X143500000Y-67750000D03*
G04 #@! TD*
D18*
G04 #@! TO.C,CA2*
X101500000Y-127500000D03*
D19*
X101500000Y-125000000D03*
G04 #@! TD*
D54*
G04 #@! TO.C,Q3*
X153800000Y-109000000D03*
D55*
X151500000Y-115500000D03*
D54*
X149200000Y-109000000D03*
G04 #@! TD*
D19*
G04 #@! TO.C,PS2*
X125250000Y-75235000D03*
X125250000Y-77775000D03*
X125250000Y-80315000D03*
X125250000Y-82855000D03*
X125250000Y-85395000D03*
X125250000Y-110795000D03*
X125250000Y-113335000D03*
X125250000Y-115875000D03*
X125250000Y-118415000D03*
X125250000Y-120955000D03*
X125250000Y-123495000D03*
G04 #@! TD*
D56*
G04 #@! TO.C,FL3*
X124850000Y-138100000D03*
X111150000Y-138100000D03*
X124850000Y-133800000D03*
X111150000Y-133800000D03*
D57*
X117000000Y-130900000D03*
D58*
X114750000Y-141100000D03*
G04 #@! TD*
D25*
G04 #@! TO.C,J1*
X73460000Y-56170000D03*
X73460000Y-70970000D03*
D26*
X76000000Y-60000000D03*
X78540000Y-61020000D03*
X76000000Y-62040000D03*
X78540000Y-63060000D03*
X76000000Y-64080000D03*
X78540000Y-65100000D03*
X76000000Y-66120000D03*
X78540000Y-67140000D03*
D27*
X78540000Y-55445000D03*
X78540000Y-71695000D03*
G04 #@! TD*
D59*
G04 #@! TO.C,IC8*
X174850000Y-63550000D03*
X174850000Y-64500000D03*
X174850000Y-65450000D03*
X177650000Y-65450000D03*
X177650000Y-63550000D03*
G04 #@! TD*
D37*
G04 #@! TO.C,TP1*
X159500000Y-72500000D03*
G04 #@! TD*
D60*
G04 #@! TO.C,R10*
X86250000Y-124049582D03*
X84250000Y-124049582D03*
G04 #@! TD*
D61*
G04 #@! TO.C,IC1*
X94905000Y-73288000D03*
X93635000Y-73288000D03*
X92365000Y-73288000D03*
X91095000Y-73288000D03*
X91095000Y-78712000D03*
X92365000Y-78712000D03*
X93635000Y-78712000D03*
X94905000Y-78712000D03*
G04 #@! TD*
D51*
G04 #@! TO.C,F6*
X177525000Y-114500000D03*
X180475000Y-114500000D03*
G04 #@! TD*
D50*
G04 #@! TO.C,D5*
X173500000Y-105800000D03*
X173500000Y-110200000D03*
G04 #@! TD*
D11*
G04 #@! TO.C,C10*
X133500000Y-83387500D03*
X133500000Y-85112500D03*
G04 #@! TD*
D10*
G04 #@! TO.C,R23*
X120500000Y-52175000D03*
X120500000Y-54000000D03*
G04 #@! TD*
D61*
G04 #@! TO.C,IC2*
X94905000Y-98288000D03*
X93635000Y-98288000D03*
X92365000Y-98288000D03*
X91095000Y-98288000D03*
X91095000Y-103712000D03*
X92365000Y-103712000D03*
X93635000Y-103712000D03*
X94905000Y-103712000D03*
G04 #@! TD*
D14*
G04 #@! TO.C,R36*
X135662500Y-63250000D03*
X133837500Y-63250000D03*
G04 #@! TD*
D47*
G04 #@! TO.C,C17*
X153000000Y-81362500D03*
X153000000Y-79637500D03*
G04 #@! TD*
D14*
G04 #@! TO.C,R40*
X150412500Y-103750000D03*
X148587500Y-103750000D03*
G04 #@! TD*
D20*
G04 #@! TO.C,CN5*
X189500000Y-109500000D03*
X189500000Y-104420000D03*
G04 #@! TD*
D30*
G04 #@! TO.C,R20*
X154750000Y-91412500D03*
X154750000Y-89587500D03*
G04 #@! TD*
D12*
G04 #@! TO.C,R14*
X100325000Y-57750000D03*
X102150000Y-57750000D03*
G04 #@! TD*
D32*
G04 #@! TO.C,D2*
X88050000Y-112210000D03*
X88050000Y-110290000D03*
X85950000Y-111250000D03*
G04 #@! TD*
D43*
G04 #@! TO.C,LED2*
X105825000Y-57750000D03*
X104325000Y-57750000D03*
G04 #@! TD*
D11*
G04 #@! TO.C,C1*
X96750000Y-102137500D03*
X96750000Y-103862500D03*
G04 #@! TD*
D35*
G04 #@! TO.C,C19*
X167637500Y-108004500D03*
X169362500Y-108004500D03*
G04 #@! TD*
D26*
G04 #@! TO.C,S2*
X111750000Y-50500000D03*
X114250000Y-50500000D03*
X116750000Y-50500000D03*
G04 #@! TD*
D13*
G04 #@! TO.C,R34*
X170700000Y-54250000D03*
X173800000Y-54250000D03*
G04 #@! TD*
D47*
G04 #@! TO.C,C18*
X158500000Y-58362500D03*
X158500000Y-56637500D03*
G04 #@! TD*
D45*
G04 #@! TO.C,D6*
X139250000Y-56350000D03*
X139250000Y-53150000D03*
G04 #@! TD*
D54*
G04 #@! TO.C,Q1*
X131200000Y-57250000D03*
D55*
X133500000Y-50750000D03*
D54*
X135800000Y-57250000D03*
G04 #@! TD*
D62*
G04 #@! TO.C,L1*
X101000000Y-131100000D03*
X101000000Y-133900000D03*
G04 #@! TD*
D63*
G04 #@! TO.C,C9*
X96950000Y-126249582D03*
X93825000Y-126249582D03*
G04 #@! TD*
D21*
G04 #@! TO.C,C5*
X98400000Y-56000000D03*
X96675000Y-56000000D03*
G04 #@! TD*
D40*
G04 #@! TO.C,F7*
X179325000Y-124500000D03*
X172625000Y-124500000D03*
G04 #@! TD*
D35*
G04 #@! TO.C,C20*
X175887500Y-61750000D03*
X177612500Y-61750000D03*
G04 #@! TD*
D14*
G04 #@! TO.C,R26*
X119912500Y-103000000D03*
X118087500Y-103000000D03*
G04 #@! TD*
D13*
G04 #@! TO.C,R3*
X85950000Y-108000000D03*
X89050000Y-108000000D03*
G04 #@! TD*
D10*
G04 #@! TO.C,R19*
X133500000Y-78675000D03*
X133500000Y-80500000D03*
G04 #@! TD*
D30*
G04 #@! TO.C,R11*
X133500000Y-100000000D03*
X133500000Y-98175000D03*
G04 #@! TD*
D38*
G04 #@! TO.C,R2*
X89050000Y-89500000D03*
X85950000Y-89500000D03*
G04 #@! TD*
D64*
G04 #@! TO.C,CN2*
X174000000Y-135200000D03*
X174000000Y-141000000D03*
X178800000Y-138200000D03*
G04 #@! TD*
D14*
G04 #@! TO.C,R16*
X124412500Y-60250000D03*
X122587500Y-60250000D03*
G04 #@! TD*
D10*
G04 #@! TO.C,R32*
X161500000Y-107837500D03*
X161500000Y-109662500D03*
G04 #@! TD*
D50*
G04 #@! TO.C,D7*
X173500000Y-118200000D03*
X173500000Y-113800000D03*
G04 #@! TD*
D43*
G04 #@! TO.C,LED5*
X111992500Y-93250000D03*
X113492500Y-93250000D03*
G04 #@! TD*
D14*
G04 #@! TO.C,R27*
X119912500Y-101500000D03*
X118087500Y-101500000D03*
G04 #@! TD*
D37*
G04 #@! TO.C,TP2*
X159500000Y-69750000D03*
G04 #@! TD*
M02*
